<svg width="24" height="24" viewBox="0 0 24 24" fill="none" xmlns="http://www.w3.org/2000/svg">
<path d="M16.1895 5C18.2401 5 20 6.89437 20 8.98145C19.9999 11.7691 18.0462 14.2682 15.8467 16.168C14.7713 17.0968 13.6905 17.8357 12.877 18.3428C12.5258 18.5617 12.2253 18.7345 12 18.8613C11.7747 18.7345 11.4742 18.5617 11.123 18.3428C10.3095 17.8357 9.22867 17.0968 8.15332 16.168C5.95383 14.2682 4.00015 11.7691 4 8.98145C4 6.95955 5.65151 5.11886 7.61914 5.00586L7.81055 5C9.19942 5.00022 10.4662 5.72933 11.1338 6.88477L12 8.38379L12.8662 6.88477C13.4921 5.80153 14.6446 5.09328 15.9307 5.00879L16.1895 5Z" stroke="#6F6F6F" stroke-width="2"/>
</svg>
