<svg width="24" height="24" viewBox="0 0 24 24" fill="none" xmlns="http://www.w3.org/2000/svg">
<path d="M14.793 7.16699C16.2609 7.16699 17.4998 8.51325 17.5 9.9873C17.5 11.9221 16.1477 13.6314 14.6729 14.9053C13.9478 15.5315 13.2202 16.029 12.6729 16.3701C12.4 16.5402 12.1732 16.6704 12.0156 16.7578C12.0106 16.7606 12.0049 16.7629 12 16.7656C11.9951 16.7629 11.9894 16.7606 11.9844 16.7578C11.8268 16.6704 11.6 16.5402 11.3271 16.3701C10.7798 16.029 10.0522 15.5315 9.32715 14.9053C7.85235 13.6314 6.5 11.9221 6.5 9.9873C6.50024 8.5592 7.66292 7.25107 9.07031 7.1709L9.20703 7.16699C10.191 7.16714 11.0918 7.68353 11.5674 8.50684L12 9.25684L12.4326 8.50684C12.8784 7.73502 13.698 7.23278 14.6094 7.17285L14.793 7.16699Z" stroke="#6F6F6F"/>
</svg>
