<svg width="24" height="24" viewBox="0 0 24 24" fill="none" xmlns="http://www.w3.org/2000/svg">
<path d="M17.75 2.25C18.1642 2.25 18.5 2.58579 18.5 3V5.22754C18.7895 5.24555 19.1344 5.29544 19.4873 5.41309C19.9685 5.57349 20.4865 5.8679 20.8809 6.39355C21.2778 6.92276 21.5 7.6211 21.5 8.5C21.5 10.1153 20.5079 11.0716 19.6279 11.585C19.2171 11.8246 18.8113 11.9792 18.5 12.0781V12.5C18.5 12.5899 18.4837 12.6795 18.4521 12.7637C18.1498 13.5697 17.391 14.6691 16.3535 15.5674C15.9735 15.8964 15.5431 16.2074 15.0713 16.4717C15.5747 16.7231 16.0432 17.0233 16.457 17.3457C17.0273 17.7899 17.522 18.2969 17.8809 18.8154C18.2291 19.3186 18.5 19.9071 18.5 20.5V21C18.5 21.4142 18.1642 21.75 17.75 21.75H6.75C6.33579 21.75 6 21.4142 6 21V20.5C6 20.4506 6.00496 20.401 6.01465 20.3525C6.26025 19.1252 7.10651 17.9789 8.20215 17.1514C8.54492 16.8925 8.91912 16.6594 9.31738 16.4609C7.74563 15.5827 6.67737 14.1884 6.13965 13.4355C6.04892 13.3084 6 13.1562 6 13V12.0781C5.68866 11.9792 5.28286 11.8246 4.87207 11.585C3.99205 11.0716 3 10.1153 3 8.5C3 7.6211 3.22224 6.92276 3.61914 6.39355C4.0135 5.8679 4.53148 5.57349 5.0127 5.41309C5.36565 5.29544 5.7105 5.24555 6 5.22754V3C6 2.58579 6.33579 2.25 6.75 2.25H17.75ZM12.25 17.25C11.1072 17.25 9.98791 17.6829 9.10645 18.3486C8.36668 18.9074 7.84481 19.5915 7.60059 20.25H16.9521C16.9019 20.0966 16.8078 19.9007 16.6475 19.6689C16.3901 19.2969 16.0078 18.8975 15.5352 18.5293C14.5772 17.7831 13.3602 17.25 12.25 17.25ZM7.5 12.751C8.37956 13.9437 9.99126 15.75 12.25 15.75C13.4087 15.75 14.4914 15.1951 15.3721 14.4326C16.1996 13.716 16.7667 12.8831 17 12.3467V3.75H7.5V12.751ZM6 6.7334C5.83497 6.74932 5.6582 6.77995 5.4873 6.83691C5.21862 6.92648 4.98647 7.0698 4.81836 7.29395C4.65285 7.51477 4.5 7.87919 4.5 8.5C4.5 9.38454 5.00799 9.92841 5.62793 10.29C5.75219 10.3625 5.87871 10.4226 6 10.4766V6.7334ZM18.5 10.4766C18.6213 10.4226 18.7478 10.3625 18.8721 10.29C19.492 9.92841 20 9.38454 20 8.5C20 7.87919 19.8471 7.51477 19.6816 7.29395C19.5135 7.0698 19.2814 6.92648 19.0127 6.83691C18.8418 6.77995 18.665 6.74932 18.5 6.7334V10.4766Z" fill="#6F6F6F"/>
</svg>
