<svg width="24" height="24" viewBox="0 0 24 24" fill="none" xmlns="http://www.w3.org/2000/svg">
<circle cx="12" cy="12" r="8.75" stroke="#6F6F6F" stroke-width="1.5"/>
<path d="M15.0532 7.12695C15.2526 7.12695 15.4302 7.18329 15.5862 7.29595C15.7422 7.39995 15.8202 7.56895 15.8202 7.80295V15.395C15.8202 15.8023 15.7379 16.084 15.5732 16.24C15.4172 16.396 15.1312 16.474 14.7152 16.474C14.5592 16.474 14.4206 16.461 14.2992 16.435C14.1779 16.409 14.0609 16.3526 13.9482 16.266C13.8356 16.1706 13.7186 16.0363 13.5972 15.863C13.4759 15.6896 13.3329 15.4556 13.1682 15.161L10.7112 10.767C10.5812 10.533 10.4642 10.299 10.3602 10.065C10.2562 9.83095 10.1652 9.56662 10.0872 9.27195V15.85C10.0872 16.084 10.0092 16.2573 9.85322 16.37C9.69722 16.474 9.51956 16.526 9.32022 16.526C9.12089 16.526 8.94322 16.474 8.78722 16.37C8.63122 16.2573 8.55322 16.084 8.55322 15.85V8.25795C8.55322 7.85062 8.63122 7.56895 8.78722 7.41295C8.95189 7.25695 9.24222 7.17895 9.65822 7.17895C9.81422 7.17895 9.95289 7.19195 10.0742 7.21795C10.1956 7.24395 10.3126 7.30462 10.4252 7.39995C10.5379 7.48662 10.6549 7.61662 10.7762 7.78995C10.8976 7.96329 11.0406 8.19729 11.2052 8.49195L13.6622 12.886C13.7922 13.12 13.9092 13.354 14.0132 13.588C14.1172 13.822 14.2082 14.0863 14.2862 14.381V7.80295C14.2862 7.56895 14.3642 7.39995 14.5202 7.29595C14.6762 7.18329 14.8539 7.12695 15.0532 7.12695Z" fill="#6F6F6F"/>
<path d="M15.8203 7.80273C15.8203 7.598 15.7601 7.44307 15.6406 7.33789L15.5859 7.2959C15.4689 7.2114 15.3396 7.1588 15.1982 7.1377L15.0527 7.12695C14.8535 7.127 14.6755 7.18328 14.5195 7.2959L14.4648 7.33789C14.3455 7.44306 14.2862 7.59817 14.2861 7.80273V14.3809C14.2081 14.0862 14.1167 13.8219 14.0127 13.5879C13.9608 13.4711 13.906 13.3541 13.8477 13.2373L13.6621 12.8857L11.2051 8.49219C11.1228 8.34498 11.0461 8.21263 10.9746 8.0957L10.7764 7.79004C10.6551 7.61674 10.5375 7.48706 10.4248 7.40039C10.3403 7.32887 10.2535 7.27664 10.1641 7.24414L10.0742 7.21777C10.0135 7.20477 9.94828 7.19498 9.87891 7.18848L9.6582 7.17871C9.24222 7.17871 8.95178 7.2571 8.78711 7.41309C8.63113 7.56906 8.55276 7.85058 8.55273 8.25781V15.8496C8.55273 16.0836 8.63111 16.2575 8.78711 16.3701C8.90415 16.4481 9.03337 16.4971 9.1748 16.5166L9.32031 16.5264C9.46982 16.5263 9.6073 16.497 9.73242 16.4385L9.85254 16.3701C10.0085 16.2575 10.0869 16.0836 10.0869 15.8496V9.27246C10.1649 9.56696 10.2564 9.83154 10.3604 10.0654C10.4642 10.2992 10.5811 10.5329 10.7109 10.7666L13.168 15.1611C13.3326 15.4558 13.4754 15.69 13.5967 15.8633C13.718 16.0366 13.8356 16.1703 13.9482 16.2656C14.0608 16.3522 14.1776 16.4085 14.2988 16.4346C14.4201 16.4606 14.5589 16.4736 14.7148 16.4736C15.1308 16.4736 15.4172 16.3962 15.5732 16.2402C15.7173 16.1037 15.7984 15.8708 15.8164 15.542L15.8203 15.3945V7.80273ZM16.0195 15.3945C16.0195 15.8141 15.9374 16.1659 15.7139 16.3809C15.4986 16.5962 15.1419 16.6738 14.7148 16.6738C14.5482 16.6738 14.3949 16.6604 14.2568 16.6309C14.1026 16.5978 13.9589 16.5268 13.8262 16.4248L13.8184 16.4189C13.6883 16.3089 13.5609 16.1593 13.4336 15.9775C13.3068 15.7964 13.1594 15.5563 12.9932 15.2588L10.5361 10.8643C10.4465 10.703 10.3648 10.5405 10.2871 10.3789V15.8496C10.2871 16.1322 10.1893 16.3737 9.96973 16.5322L9.96387 16.5361C9.77298 16.6634 9.55639 16.7255 9.32031 16.7256C9.08412 16.7256 8.86675 16.6634 8.67578 16.5361L8.66992 16.5322C8.45036 16.3737 8.35254 16.1322 8.35254 15.8496V8.25781C8.35256 7.83803 8.43078 7.48621 8.64551 7.27148L8.64941 7.26758L8.73926 7.19531C8.96257 7.03911 9.28292 6.97852 9.6582 6.97852C9.82479 6.97853 9.97818 6.99288 10.1162 7.02246C10.2722 7.05595 10.4149 7.13301 10.5459 7.24219L10.5469 7.24121C10.6815 7.34474 10.8116 7.4931 10.9395 7.67578C11.0662 7.85687 11.2137 8.09707 11.3799 8.39453L13.8369 12.7881V12.7891C13.9264 12.9501 14.0084 13.1121 14.0859 13.2734V7.80273C14.086 7.52345 14.1823 7.28542 14.4033 7.13477V7.13379L14.4092 7.12988V7.13086C14.5991 6.99537 14.8154 6.92681 15.0527 6.92676C15.29 6.92676 15.5063 6.99549 15.6963 7.13086L15.6973 7.12988C15.6992 7.13119 15.7012 7.13247 15.7031 7.13379L15.7021 7.13477C15.9235 7.28541 16.0195 7.5233 16.0195 7.80273V15.3945Z" fill="#6F6F6F"/>
</svg>
