<svg width="24" height="24" viewBox="0 0 24 24" fill="none" xmlns="http://www.w3.org/2000/svg">
<path d="M19.7842 3.6597C19.1757 3.55554 18.5596 3.50212 17.9421 3.5C15.8355 3.49829 13.7729 4.09642 12 5.22309C10.2226 4.11121 8.16025 3.52777 6.05788 3.54203C5.44043 3.54414 4.82425 3.59756 4.21583 3.70173C4.01652 3.73575 3.83603 3.83912 3.70685 3.99322C3.57768 4.14732 3.50832 4.34202 3.51126 4.54226V14.6286C3.50945 14.7521 3.53514 14.8745 3.58652 14.987C3.63789 15.0996 3.71369 15.1995 3.80852 15.2798C3.90334 15.36 4.01486 15.4186 4.13515 15.4513C4.25543 15.4841 4.38152 15.4901 4.50445 15.4691C5.7209 15.2606 6.9672 15.2952 8.16994 15.5709C9.37268 15.8466 10.5075 16.3579 11.5077 17.0745L11.6095 17.1334H11.7029C11.7969 17.1727 11.8979 17.1929 12 17.1929C12.1021 17.1929 12.2031 17.1727 12.2971 17.1334H12.3905L12.4923 17.0745C13.4855 16.3418 14.6171 15.814 15.8201 15.5224C17.023 15.2307 18.2729 15.1812 19.4956 15.3767C19.6185 15.3977 19.7446 15.3916 19.8649 15.3589C19.9851 15.3262 20.0967 15.2676 20.1915 15.1873C20.2863 15.1071 20.3621 15.0071 20.4135 14.8946C20.4649 14.782 20.4906 14.6596 20.4887 14.5361V4.4498C20.4799 4.25829 20.4052 4.07552 20.2771 3.93181C20.1489 3.78811 19.975 3.6921 19.7842 3.6597ZM11.1511 14.8303C9.58025 14.0132 7.83235 13.5863 6.05788 13.5863H5.20901V5.18106C5.49175 5.16548 5.77514 5.16548 6.05788 5.18106C7.86886 5.17908 9.64031 5.70529 11.1511 6.69401V14.8303ZM18.791 13.62H17.9421C16.1677 13.6199 14.4198 14.0468 12.8489 14.8639V6.69401C14.3597 5.70529 16.1311 5.17908 17.9421 5.18106C18.2249 5.16548 18.5082 5.16548 18.791 5.18106V13.62ZM19.7842 17.1081C19.1757 17.004 18.5596 16.9506 17.9421 16.9484C15.8355 16.9467 13.7729 17.5449 12 18.6715C10.2271 17.5449 8.16448 16.9467 6.05788 16.9484C5.44043 16.9506 4.82425 17.004 4.21583 17.1081C4.10533 17.1255 3.99938 17.1643 3.90409 17.2224C3.8088 17.2804 3.72603 17.3566 3.66055 17.4464C3.59507 17.5362 3.54818 17.638 3.52256 17.7458C3.49694 17.8537 3.4931 17.9654 3.51126 18.0748C3.5544 18.293 3.68315 18.4855 3.86931 18.6099C4.05547 18.7344 4.28386 18.7807 4.50445 18.7388C5.7209 18.5302 6.9672 18.5648 8.16994 18.8405C9.37268 19.1163 10.5075 19.6275 11.5077 20.3442C11.6514 20.4455 11.8235 20.5 12 20.5C12.1765 20.5 12.3486 20.4455 12.4923 20.3442C13.4925 19.6275 14.6273 19.1163 15.8301 18.8405C17.0328 18.5648 18.2791 18.5302 19.4956 18.7388C19.7161 18.7807 19.9445 18.7344 20.1307 18.6099C20.3168 18.4855 20.4456 18.293 20.4887 18.0748C20.5069 17.9654 20.5031 17.8537 20.4774 17.7458C20.4518 17.638 20.4049 17.5362 20.3394 17.4464C20.274 17.3566 20.1912 17.2804 20.0959 17.2224C20.0006 17.1643 19.8947 17.1255 19.7842 17.1081Z" fill="#6F6F6F"/>
</svg>
