<svg width="24" height="24" viewBox="0 0 24 24" fill="none" xmlns="http://www.w3.org/2000/svg">
<path d="M12 24C18.6274 24 24 18.6274 24 12C24 5.37258 18.6274 0 12 0C5.37258 0 0 5.37258 0 12C0 18.6274 5.37258 24 12 24Z" fill="#DFDFDF"/>
<path d="M19.5388 20.6724V21.3366C17.4786 23.0024 14.856 24 12 24C9.14407 24 6.52144 23.0024 4.46161 21.3371V20.6727C4.46161 17.0855 7.36969 14.1771 10.957 14.1771H13.0434C16.6307 14.1771 19.5388 17.0855 19.5388 20.6727V20.6724Z" fill="#A3A3A3"/>
<path d="M11.9999 12.4212C14.2013 12.4212 15.9859 10.6367 15.9859 8.43531C15.9859 6.23395 14.2013 4.4494 11.9999 4.4494C9.79859 4.4494 8.01404 6.23395 8.01404 8.43531C8.01404 10.6367 9.79859 12.4212 11.9999 12.4212Z" fill="#A3A3A3"/>
</svg>
