<svg width="20" height="20" viewBox="0 0 20 20" fill="none" xmlns="http://www.w3.org/2000/svg">
<path fill-rule="evenodd" clip-rule="evenodd" d="M4.49475 2.08384C5.68725 1.98134 7.52225 1.87467 10.0002 1.87467C10.2697 1.87467 10.6852 1.87592 11.0572 1.87842C11.3627 1.88009 11.636 1.93551 11.8656 2.04384C12.9014 2.53342 13.8602 3.24592 14.6839 4.07301C15.5131 4.90509 16.2693 5.88759 16.7252 6.92384C16.8107 7.11967 16.8554 7.35384 16.8593 7.62634C16.8693 8.35259 16.8752 9.27176 16.8752 9.99967C16.8752 13.2263 16.7614 15.4151 16.656 16.7501C16.6056 17.3876 16.1331 17.8618 15.506 17.9155C14.3131 18.018 12.4781 18.1247 10.0002 18.1247C7.52225 18.1247 5.68725 18.018 4.49475 17.9155C3.86725 17.8618 3.39475 17.3876 3.34475 16.7501C3.2385 15.4151 3.12516 13.2263 3.12516 9.99967C3.12516 6.77301 3.23891 4.58426 3.34433 3.24926C3.39475 2.61176 3.86766 2.13759 4.49475 2.08384ZM10.0002 0.208008C7.47433 0.208008 5.59183 0.316341 4.35183 0.423008C2.90641 0.547174 1.79725 1.67384 1.68308 3.11801C1.57391 4.50134 1.4585 6.73467 1.4585 9.99967C1.4585 13.2651 1.57391 15.498 1.68308 16.8813C1.79725 18.3255 2.90641 19.4522 4.35183 19.5763C5.59183 19.6826 7.47433 19.7913 10.0002 19.7913C12.526 19.7913 14.4085 19.683 15.6485 19.5763C17.0939 19.4518 18.2031 18.3255 18.3172 16.8813C18.4264 15.498 18.5418 13.2647 18.5418 9.99967C18.5418 9.26467 18.536 8.33801 18.5256 7.60301C18.5197 7.17051 18.4485 6.70301 18.2506 6.25301C17.686 4.96926 16.7847 3.82009 15.8647 2.89634C14.9272 1.95551 13.8139 1.12134 12.5772 0.537174C12.0843 0.303841 11.5618 0.214674 11.0681 0.211758C10.7121 0.209476 10.3561 0.208226 10.0002 0.208008ZM11.4918 5.22342C12.3914 5.04796 13.308 4.97541 14.2239 5.00717C14.3711 5.01187 14.5109 5.07241 14.615 5.17651C14.7191 5.28061 14.7796 5.42045 14.7843 5.56759C14.816 6.48355 14.7433 7.40014 14.5677 8.29967C14.471 8.78967 13.8793 8.93217 13.5447 8.59759L13.0881 8.14134C12.5547 8.62092 11.8031 9.34717 11.2127 10.1105C10.6022 10.8997 9.25891 10.8447 8.82308 9.81676C8.59183 9.27134 8.276 8.55176 7.98225 7.96217C7.55141 8.30801 6.92516 8.93467 6.20141 10.0413C6.13397 10.1444 6.0469 10.2331 5.94517 10.3025C5.84343 10.3719 5.72903 10.4205 5.60848 10.4457C5.48794 10.4709 5.36362 10.4721 5.24263 10.4492C5.12163 10.4263 5.00632 10.3798 4.90329 10.3124C4.80025 10.2449 4.71151 10.1579 4.64213 10.0561C4.57275 9.9544 4.52408 9.84 4.49892 9.71945C4.47375 9.59891 4.47257 9.47459 4.49544 9.35359C4.51832 9.2326 4.56481 9.11729 4.63225 9.01426C5.78141 7.25801 6.80516 6.43217 7.45016 6.05217C8.19516 5.61301 9.03349 5.96301 9.38599 6.60051C9.66308 7.10176 9.97141 7.76384 10.2331 8.35426C10.7134 7.81281 11.2233 7.29841 11.7606 6.81342L11.1939 6.24676C10.8589 5.91217 11.0022 5.32051 11.4918 5.22342ZM5.41683 11.9788C5.16819 11.9788 4.92973 12.0776 4.75392 12.2534C4.5781 12.4292 4.47933 12.6677 4.47933 12.9163C4.47933 13.165 4.5781 13.4034 4.75392 13.5793C4.92973 13.7551 5.16819 13.8538 5.41683 13.8538H14.5835C14.8321 13.8538 15.0706 13.7551 15.2464 13.5793C15.4222 13.4034 15.521 13.165 15.521 12.9163C15.521 12.6677 15.4222 12.4292 15.2464 12.2534C15.0706 12.0776 14.8321 11.9788 14.5835 11.9788H5.41683ZM5.41683 14.8955C5.16819 14.8955 4.92973 14.9943 4.75392 15.1701C4.5781 15.3459 4.47933 15.5844 4.47933 15.833C4.47933 16.0816 4.5781 16.3201 4.75392 16.4959C4.92973 16.6717 5.16819 16.7705 5.41683 16.7705H14.5835C14.8321 16.7705 15.0706 16.6717 15.2464 16.4959C15.4222 16.3201 15.521 16.0816 15.521 15.833C15.521 15.5844 15.4222 15.3459 15.2464 15.1701C15.0706 14.9943 14.8321 14.8955 14.5835 14.8955H5.41683Z" fill="#6F6F6F"/>
</svg>
