<svg width="24" height="24" viewBox="0 0 24 24" fill="none" xmlns="http://www.w3.org/2000/svg">
<rect x="5" y="5" width="14" height="14" rx="7" fill="#DFDFDF"/>
<path d="M14.4692 8.87012C14.6514 8.68794 14.9471 8.68808 15.1294 8.87012C15.3116 9.05236 15.3116 9.34803 15.1294 9.53027L12.6597 12L15.1294 14.4697C15.3116 14.6519 15.3114 14.9476 15.1294 15.1299C14.9471 15.3119 14.6514 15.3121 14.4692 15.1299L11.9995 12.6602L9.52979 15.1299C9.34754 15.3121 9.05187 15.3121 8.86963 15.1299C8.68759 14.9476 8.68745 14.6519 8.86963 14.4697L11.3394 12L8.86963 9.53027C8.68766 9.34808 8.68765 9.05231 8.86963 8.87012C9.05182 8.68814 9.34759 8.68815 9.52979 8.87012L11.9995 11.3398L14.4692 8.87012Z" fill="#FBFBFB"/>
</svg>
