<svg width="375" height="377" viewBox="0 0 375 377" fill="none" xmlns="http://www.w3.org/2000/svg">
<rect width="375" height="377" fill="#FEFEFE"/>
<g clip-path="url(#clip0_2737_14417)">
<rect x="49" y="20.5" width="147" height="147" stroke="#DFDFDF"/>
<path d="M59.06 30.976H83.22V33.92H59.06V30.976ZM71.188 34.592C74.4733 34.592 76.948 34.9013 78.612 35.52C80.276 36.1173 81.108 37.056 81.108 38.336C81.108 39.5947 80.276 40.5333 78.612 41.152C76.948 41.7493 74.4733 42.048 71.188 42.048C67.924 42.048 65.4493 41.7493 63.764 41.152C62.1 40.5333 61.268 39.5947 61.268 38.336C61.268 37.056 62.1 36.1173 63.764 35.52C65.4493 34.9013 67.924 34.592 71.188 34.592ZM71.188 37.28C69.2253 37.28 67.828 37.3653 66.996 37.536C66.1853 37.6853 65.78 37.952 65.78 38.336C65.78 38.6987 66.1853 38.9653 66.996 39.136C67.828 39.2853 69.2253 39.36 71.188 39.36C73.1507 39.36 74.5373 39.2853 75.348 39.136C76.18 38.9653 76.596 38.6987 76.596 38.336C76.596 37.952 76.18 37.6853 75.348 37.536C74.5373 37.3653 73.1507 37.28 71.188 37.28ZM69.076 28.896H73.3V33.44H69.076V28.896ZM57.78 43.296H84.596V46.368H57.78V43.296ZM69.076 40.832H73.3V44.864H69.076V40.832ZM60.852 47.52H81.332V54.368H65.204V56.192H60.884V51.648H77.012V50.432H60.852V47.52ZM60.884 55.712H82.132V58.656H60.884V55.712ZM106.602 29.184H110.858V47.424H106.602V29.184ZM90.6655 48.704H110.858V58.848H106.602V52.096H90.6655V48.704ZM87.7855 42.784H90.3455C92.2868 42.784 94.0255 42.7627 95.5615 42.72C97.0975 42.6773 98.5588 42.6027 99.9455 42.496C101.332 42.368 102.73 42.1867 104.138 41.952L104.618 45.344C103.167 45.5787 101.716 45.76 100.266 45.888C98.8362 46.016 97.3215 46.1013 95.7215 46.144C94.1215 46.1653 92.3295 46.176 90.3455 46.176H87.7855V42.784ZM87.7215 30.816H101.385V39.936H91.9455V44.352H87.7855V36.8H97.1615V34.208H87.7215V30.816Z" fill="#FEFEFE"/>
<rect x="196" y="20.5" width="147" height="147" fill="#A451F7" fill-opacity="0.05"/>
<rect x="196" y="20.5" width="147" height="147" stroke="#DFDFDF"/>
<path d="M247.284 31.656H261.652V44.232H247.284V31.656ZM257.492 34.984H251.476V40.872H257.492V34.984ZM266.164 30.216H270.42V45.128H266.164V30.216ZM250.644 46.44H270.42V54.472H254.9V57.512H250.708V51.432H266.196V49.704H250.644V46.44ZM250.708 56.328H271.156V59.656H250.708V56.328ZM294.634 30.152H298.922V59.88H294.634V30.152ZM275.85 49.512H278.474C280.223 49.512 281.876 49.4907 283.434 49.448C284.991 49.384 286.516 49.288 288.01 49.16C289.503 49.0107 291.028 48.7973 292.586 48.52L293.034 51.944C290.644 52.3707 288.287 52.6587 285.962 52.808C283.658 52.936 281.162 53 278.474 53H275.85V49.512ZM275.786 32.68H289.77V44.168H280.17V50.824H275.85V40.808H285.45V36.104H275.786V32.68ZM310.185 32.328H326.153V35.72H310.185V32.328ZM309.897 47.24L309.449 43.784C311.177 43.784 313.054 43.7733 315.081 43.752C317.108 43.7093 319.166 43.6347 321.257 43.528C323.348 43.4213 325.353 43.2613 327.273 43.048L327.561 46.152C325.598 46.472 323.572 46.7173 321.481 46.888C319.412 47.0373 317.385 47.1333 315.401 47.176C313.438 47.2187 311.604 47.24 309.897 47.24ZM312.553 35.016H316.617V44.936H312.553V35.016ZM319.721 35.016H323.817V44.936H319.721V35.016ZM313.353 49.512H333.545V59.848H329.289V52.936H313.353V49.512ZM329.289 30.216H333.545V48.296H329.289V30.216Z" fill="#A451F7" fill-opacity="0.7"/>
<path d="M276 108C276 114.627 270.627 120 264 120C257.373 120 252 114.627 252 108C252 101.373 257.373 96 264 96C270.627 96 276 101.373 276 108Z" fill="#A451F7"/>
<path d="M270.353 108C270.353 111.509 267.509 114.353 264 114.353C260.491 114.353 257.647 111.509 257.647 108C257.647 104.491 260.491 101.647 264 101.647C267.509 101.647 270.353 104.491 270.353 108Z" fill="#FBFBFB"/>
<rect x="196" y="167.5" width="147" height="147" stroke="#DFDFDF"/>
<path d="M253.708 280.968H267.884V300.616H253.708V280.968ZM263.692 284.328H257.9V297.288H263.692V284.328ZM271.724 278.216H276.012V307.848H271.724V278.216ZM275.084 289.384H280.3V292.872H275.084V289.384ZM301.762 278.184H305.986V307.816H301.762V278.184ZM282.786 281H287.042V299.432H282.786V281ZM282.786 296.904H285.41C287.586 296.904 289.858 296.819 292.226 296.648C294.594 296.456 297.004 296.115 299.458 295.624L299.906 299.176C297.388 299.709 294.903 300.072 292.45 300.264C290.018 300.435 287.671 300.52 285.41 300.52H282.786V296.904ZM317.623 280.232C319.138 280.232 320.471 280.669 321.623 281.544C322.796 282.397 323.714 283.624 324.375 285.224C325.058 286.803 325.399 288.669 325.399 290.824C325.399 293 325.058 294.888 324.375 296.488C323.714 298.067 322.796 299.293 321.623 300.168C320.471 301.021 319.138 301.448 317.623 301.448C316.108 301.448 314.764 301.021 313.591 300.168C312.418 299.293 311.49 298.067 310.807 296.488C310.146 294.888 309.815 293 309.815 290.824C309.815 288.669 310.146 286.803 310.807 285.224C311.49 283.624 312.418 282.397 313.591 281.544C314.764 280.669 316.108 280.232 317.623 280.232ZM317.623 284.104C316.898 284.104 316.247 284.36 315.671 284.872C315.116 285.384 314.679 286.141 314.359 287.144C314.06 288.125 313.911 289.352 313.911 290.824C313.911 292.275 314.06 293.512 314.359 294.536C314.679 295.539 315.116 296.296 315.671 296.808C316.247 297.32 316.898 297.576 317.623 297.576C318.348 297.576 318.988 297.32 319.543 296.808C320.098 296.296 320.524 295.539 320.823 294.536C321.143 293.512 321.303 292.275 321.303 290.824C321.303 289.352 321.143 288.125 320.823 287.144C320.524 286.141 320.098 285.384 319.543 284.872C318.988 284.36 318.348 284.104 317.623 284.104ZM328.599 278.216H332.887V307.848H328.599V278.216ZM331.959 289.384H337.175V292.872H331.959V289.384Z" fill="#FEFEFE"/>
<rect x="49" y="167.5" width="147" height="147" stroke="#DFDFDF"/>
<path d="M77.132 278.184H81.388V307.816H77.132V278.184ZM57.42 282.632H74.988V286.024H57.42V282.632ZM66.252 287.656C67.7027 287.656 68.9933 287.955 70.124 288.552C71.276 289.149 72.1827 289.981 72.844 291.048C73.5053 292.093 73.836 293.309 73.836 294.696C73.836 296.083 73.5053 297.309 72.844 298.376C72.1827 299.421 71.276 300.253 70.124 300.872C68.9933 301.469 67.7027 301.768 66.252 301.768C64.8013 301.768 63.5 301.469 62.348 300.872C61.196 300.253 60.2893 299.421 59.628 298.376C58.988 297.309 58.668 296.083 58.668 294.696C58.668 293.309 58.988 292.093 59.628 291.048C60.2893 290.003 61.196 289.181 62.348 288.584C63.5 287.965 64.8013 287.656 66.252 287.656ZM66.252 291.112C65.5693 291.112 64.9613 291.251 64.428 291.528C63.8947 291.805 63.4787 292.211 63.18 292.744C62.8813 293.277 62.732 293.928 62.732 294.696C62.732 295.443 62.8813 296.093 63.18 296.648C63.4787 297.181 63.8947 297.597 64.428 297.896C64.9613 298.173 65.5693 298.312 66.252 298.312C66.9347 298.312 67.532 298.173 68.044 297.896C68.5773 297.597 68.9933 297.181 69.292 296.648C69.5907 296.093 69.74 295.443 69.74 294.696C69.74 293.928 69.5907 293.277 69.292 292.744C68.9933 292.211 68.5773 291.805 68.044 291.528C67.532 291.251 66.9347 291.112 66.252 291.112ZM64.076 278.632H68.332V284.744H64.076V278.632ZM85.2815 292.84H112.066V296.232H85.2815V292.84ZM88.5135 287.048H109.122V290.44H88.5135V287.048ZM88.5135 279.272H108.866V282.632H92.7375V288.264H88.5135V279.272ZM88.4175 303.912H109.314V307.304H88.4175V303.912ZM88.4175 298.44H92.6735V304.776H88.4175V298.44Z" fill="#FEFEFE"/>
</g>
<rect x="49" y="20.5" width="294" height="294" stroke="#DFDFDF"/>
<path d="M35.348 39.8071V32.4271H36.164V39.8071H35.348ZM32.816 39.8071V38.8231H35.876V39.8071H32.816ZM37.52 41.1391V31.3351H38.324V41.1391H37.52ZM35.888 36.7351V35.7391H38.06V36.7351H35.888ZM39.404 40.0471V32.4151H40.208V40.0471H39.404ZM42.476 40.1431V32.3191H43.292V40.1431H42.476ZM39.632 38.4031V37.4191H42.848V38.4031H39.632ZM39.632 35.0431V34.0591H42.848V35.0431H39.632ZM32.816 25.804C32.816 25.02 32.9 24.344 33.068 23.776C33.228 23.2 33.46 22.76 33.764 22.456C34.068 22.144 34.44 21.988 34.88 21.988C35.304 21.988 35.672 22.144 35.984 22.456C36.288 22.76 36.52 23.2 36.68 23.776C36.84 24.344 36.92 25.02 36.92 25.804C36.92 26.58 36.84 27.256 36.68 27.832C36.52 28.4 36.288 28.84 35.984 29.152C35.672 29.464 35.304 29.62 34.88 29.62C34.44 29.62 34.068 29.464 33.764 29.152C33.46 28.84 33.228 28.4 33.068 27.832C32.9 27.256 32.816 26.58 32.816 25.804ZM33.608 25.804C33.608 26.372 33.66 26.868 33.764 27.292C33.86 27.708 34.004 28.032 34.196 28.264C34.38 28.488 34.608 28.6 34.88 28.6C35.136 28.6 35.36 28.488 35.552 28.264C35.736 28.032 35.88 27.708 35.984 27.292C36.08 26.868 36.128 26.372 36.128 25.804C36.128 25.228 36.08 24.732 35.984 24.316C35.88 23.892 35.736 23.568 35.552 23.344C35.36 23.12 35.136 23.008 34.88 23.008C34.608 23.008 34.38 23.12 34.196 23.344C34.004 23.568 33.86 23.892 33.764 24.316C33.66 24.732 33.608 25.228 33.608 25.804ZM39.716 29.5V22.096H43.292V29.5H39.716ZM40.52 23.068V28.528H42.476V23.068H40.52ZM37.844 30.7V20.896H38.66V30.7H37.844Z" fill="#A5A5A5"/>
<path d="M35.088 200.212V199.216H36.732V200.212H35.088ZM31.08 199.744C31.08 199.224 31.172 198.764 31.356 198.364C31.532 197.956 31.78 197.64 32.1 197.416C32.42 197.184 32.792 197.068 33.216 197.068C33.64 197.068 34.016 197.184 34.344 197.416C34.664 197.64 34.916 197.956 35.1 198.364C35.276 198.764 35.364 199.224 35.364 199.744C35.364 200.264 35.276 200.728 35.1 201.136C34.916 201.536 34.664 201.852 34.344 202.084C34.016 202.308 33.64 202.42 33.216 202.42C32.792 202.42 32.42 202.308 32.1 202.084C31.78 201.852 31.532 201.536 31.356 201.136C31.172 200.728 31.08 200.264 31.08 199.744ZM31.848 199.744C31.848 200.08 31.904 200.38 32.016 200.644C32.128 200.908 32.288 201.116 32.496 201.268C32.704 201.412 32.944 201.484 33.216 201.484C33.488 201.484 33.728 201.412 33.936 201.268C34.144 201.116 34.308 200.908 34.428 200.644C34.54 200.38 34.596 200.08 34.596 199.744C34.596 199.4 34.54 199.1 34.428 198.844C34.308 198.58 34.144 198.376 33.936 198.232C33.728 198.08 33.488 198.004 33.216 198.004C32.944 198.004 32.704 198.08 32.496 198.232C32.288 198.376 32.128 198.58 32.016 198.844C31.904 199.1 31.848 199.4 31.848 199.744ZM30.588 195.604V194.608H38.892V195.604H30.588ZM34.248 195.028V193.024H35.088V195.028H34.248ZM40.368 201.472V194.224H41.184V201.472H40.368ZM38.184 201.472V200.476H40.728V201.472H38.184ZM37.284 202.912L36.456 203.032C36.456 202.4 36.452 201.704 36.444 200.944C36.428 200.176 36.396 199.392 36.348 198.592C36.292 197.792 36.208 197.024 36.096 196.288L36.828 196.216C36.964 196.968 37.064 197.744 37.128 198.544C37.192 199.336 37.236 200.108 37.26 200.86C37.276 201.604 37.284 202.288 37.284 202.912ZM35.988 192.58V182.776H36.792V192.58H35.988ZM34.128 188.176V187.18H36.312V188.176H34.128ZM37.848 191.488V183.976H41.52V184.96H38.652V191.488H37.848ZM33.876 191.344V183.892H34.692V191.344H33.876ZM31.02 191.344V183.988H31.824V190.348H34.296V191.344H31.02ZM30.54 174.713V173.717H36.54V174.713H30.54ZM33.156 174.149V172.109H33.984V174.149H33.156ZM37.092 180.617V173.717H39.516V179.609H40.824V180.581H38.796V174.701H37.836V180.617H37.092ZM40.548 180.581V173.333H41.316V180.581H40.548ZM31.56 182.117V175.709H32.34V182.117H31.56ZM32.82 178.913C32.82 178.129 32.98 177.501 33.3 177.029C33.612 176.557 34.044 176.321 34.596 176.321C35.14 176.321 35.572 176.557 35.892 177.029C36.212 177.501 36.372 178.129 36.372 178.913C36.372 179.705 36.212 180.337 35.892 180.809C35.572 181.281 35.14 181.517 34.596 181.517C34.044 181.517 33.612 181.281 33.3 180.809C32.98 180.337 32.82 179.705 32.82 178.913ZM33.552 178.913C33.552 179.409 33.648 179.809 33.84 180.113C34.024 180.409 34.276 180.557 34.596 180.557C34.916 180.557 35.172 180.409 35.364 180.113C35.548 179.809 35.64 179.409 35.64 178.913C35.64 178.409 35.548 178.009 35.364 177.713C35.172 177.417 34.916 177.269 34.596 177.269C34.276 177.269 34.024 177.417 33.84 177.713C33.648 178.009 33.552 178.409 33.552 178.913ZM30.468 179.405V178.409H32.1V179.405H30.468ZM35.676 166.775V165.791H37.056V166.775H35.676ZM30.588 162.203V161.207H37.86V162.203H30.588ZM33.864 161.627V159.623H34.692V161.627H33.864ZM37.548 169.559L36.744 169.679C36.744 169.031 36.74 168.323 36.732 167.555C36.716 166.779 36.684 165.987 36.636 165.179C36.588 164.371 36.512 163.595 36.408 162.851L37.116 162.779C37.252 163.547 37.352 164.335 37.416 165.143C37.472 165.943 37.508 166.723 37.524 167.483C37.54 168.235 37.548 168.927 37.548 169.559ZM38.412 168.347V161.207H41.436V162.203H39.204V168.347H38.412ZM31.56 169.403V163.175H32.316V169.403H31.56ZM32.724 166.295C32.724 165.527 32.868 164.915 33.156 164.459C33.444 163.995 33.836 163.763 34.332 163.763C34.828 163.763 35.22 163.995 35.508 164.459C35.796 164.915 35.94 165.527 35.94 166.295C35.94 167.055 35.796 167.667 35.508 168.131C35.22 168.595 34.828 168.827 34.332 168.827C33.836 168.827 33.444 168.595 33.156 168.131C32.868 167.667 32.724 167.055 32.724 166.295ZM33.42 166.295C33.42 166.775 33.5 167.159 33.66 167.447C33.82 167.735 34.044 167.879 34.332 167.879C34.604 167.879 34.828 167.735 35.004 167.447C35.172 167.159 35.256 166.775 35.256 166.295C35.256 165.815 35.172 165.431 35.004 165.143C34.828 164.855 34.604 164.711 34.332 164.711C34.044 164.711 33.82 164.855 33.66 165.143C33.5 165.431 33.42 165.815 33.42 166.295ZM30.492 166.775V165.791H31.932V166.775H30.492ZM35.532 159.192V149.352H36.288V159.192H35.532ZM37.26 158.016V150.576H39.576V157.008H40.848V157.992H38.892V151.56H37.98V158.016H37.26ZM40.596 157.992V150.228H41.316V157.992H40.596ZM30.888 157.944V150.612H33.144V156.936H34.32V157.92H32.472V151.596H31.596V157.944H30.888ZM34.056 157.92V150.42H34.776V157.92H34.056ZM35.832 156.54V155.556H37.716V156.54H35.832ZM35.832 152.976V151.992H37.716V152.976H35.832ZM42.852 146.473C41.956 147.025 41.016 147.457 40.032 147.769C39.04 148.081 37.952 148.237 36.768 148.237C35.592 148.237 34.508 148.081 33.516 147.769C32.524 147.457 31.58 147.025 30.684 146.473L30.996 145.801C31.852 146.313 32.776 146.697 33.768 146.953C34.752 147.201 35.752 147.325 36.768 147.325C37.792 147.325 38.8 147.201 39.792 146.953C40.776 146.697 41.696 146.313 42.552 145.801L42.852 146.473ZM37.092 143.426C37.092 143.826 36.984 144.178 36.768 144.482C36.544 144.778 36.224 145.01 35.808 145.178C35.392 145.338 34.888 145.418 34.296 145.418C33.704 145.418 33.204 145.338 32.796 145.178C32.388 145.01 32.08 144.778 31.872 144.482C31.656 144.178 31.548 143.826 31.548 143.426C31.548 143.018 31.656 142.666 31.872 142.37C32.08 142.066 32.388 141.834 32.796 141.674C33.204 141.506 33.704 141.422 34.296 141.422C34.888 141.422 35.392 141.506 35.808 141.674C36.224 141.834 36.544 142.066 36.768 142.37C36.984 142.666 37.092 143.018 37.092 143.426ZM36.42 143.426C36.42 143.074 36.244 142.794 35.892 142.586C35.532 142.37 35 142.262 34.296 142.262C33.592 142.262 33.072 142.37 32.736 142.586C32.392 142.794 32.22 143.074 32.22 143.426C32.22 143.77 32.392 144.05 32.736 144.266C33.072 144.482 33.592 144.59 34.296 144.59C35 144.59 35.532 144.482 35.892 144.266C36.244 144.05 36.42 143.77 36.42 143.426ZM40.656 143.174L31.548 138.314V137.57L40.656 142.43V143.174ZM40.656 137.294C40.656 137.694 40.548 138.046 40.332 138.35C40.116 138.646 39.8 138.878 39.384 139.046C38.968 139.206 38.464 139.286 37.872 139.286C37.28 139.286 36.78 139.206 36.372 139.046C35.964 138.878 35.652 138.646 35.436 138.35C35.22 138.046 35.112 137.694 35.112 137.294C35.112 136.894 35.22 136.546 35.436 136.25C35.652 135.946 35.964 135.714 36.372 135.554C36.78 135.386 37.28 135.302 37.872 135.302C38.464 135.302 38.968 135.386 39.384 135.554C39.8 135.714 40.116 135.946 40.332 136.25C40.548 136.546 40.656 136.894 40.656 137.294ZM39.984 137.294C39.984 136.95 39.808 136.67 39.456 136.454C39.104 136.23 38.576 136.118 37.872 136.118C37.168 136.118 36.644 136.23 36.3 136.454C35.956 136.67 35.784 136.95 35.784 137.294C35.784 137.638 35.956 137.922 36.3 138.146C36.644 138.362 37.168 138.47 37.872 138.47C38.576 138.47 39.104 138.362 39.456 138.146C39.808 137.922 39.984 137.638 39.984 137.294ZM42.852 134.247L42.552 134.931C41.696 134.411 40.776 134.023 39.792 133.767C38.8 133.511 37.792 133.383 36.768 133.383C35.752 133.383 34.752 133.511 33.768 133.767C32.776 134.023 31.852 134.411 30.996 134.931L30.684 134.247C31.58 133.687 32.524 133.255 33.516 132.951C34.508 132.639 35.592 132.483 36.768 132.483C37.952 132.483 39.04 132.639 40.032 132.951C41.016 133.255 41.956 133.687 42.852 134.247Z" fill="#A5A5A5"/>
<path d="M35.7889 319.064H36.7849V325.208H35.7889V319.064ZM36.5089 321.716H38.3809V322.556H36.5089V321.716ZM28.8769 319.664H29.8729V324.044H28.8769V319.664ZM28.8769 323.54H29.7409C30.5249 323.54 31.3249 323.508 32.1409 323.444C32.9569 323.372 33.8049 323.244 34.6849 323.06L34.8049 323.888C33.8929 324.072 33.0209 324.2 32.1889 324.272C31.3649 324.344 30.5489 324.38 29.7409 324.38H28.8769V323.54ZM32.8969 326.18H33.7369V326.516C33.7369 326.94 33.6329 327.34 33.4249 327.716C33.2249 328.084 32.9449 328.416 32.5849 328.712C32.2249 329 31.8089 329.24 31.3369 329.432C30.8649 329.632 30.3689 329.78 29.8489 329.876L29.4529 329.108C29.9169 329.036 30.3529 328.92 30.7609 328.76C31.1769 328.592 31.5449 328.392 31.8649 328.16C32.1849 327.928 32.4369 327.672 32.6209 327.392C32.8049 327.112 32.8969 326.82 32.8969 326.516V326.18ZM33.1009 326.18H33.9409V326.516C33.9409 326.812 34.0329 327.104 34.2169 327.392C34.4009 327.672 34.6529 327.928 34.9729 328.16C35.2929 328.392 35.6569 328.592 36.0649 328.76C36.4809 328.92 36.9209 329.04 37.3849 329.12L36.9889 329.888C36.4689 329.792 35.9729 329.64 35.5009 329.432C35.0289 329.232 34.6129 328.984 34.2529 328.688C33.8929 328.392 33.6089 328.06 33.4009 327.692C33.2009 327.324 33.1009 326.932 33.1009 326.516V326.18ZM29.8609 325.772H36.9649V326.576H29.8609V325.772ZM43.696 319.316C44.48 319.316 45.156 319.4 45.724 319.568C46.3 319.728 46.74 319.96 47.044 320.264C47.356 320.568 47.512 320.94 47.512 321.38C47.512 321.804 47.356 322.172 47.044 322.484C46.74 322.788 46.3 323.02 45.724 323.18C45.156 323.34 44.48 323.42 43.696 323.42C42.92 323.42 42.244 323.34 41.668 323.18C41.1 323.02 40.66 322.788 40.348 322.484C40.036 322.172 39.88 321.804 39.88 321.38C39.88 320.94 40.036 320.568 40.348 320.264C40.66 319.96 41.1 319.728 41.668 319.568C42.244 319.4 42.92 319.316 43.696 319.316ZM43.696 320.108C43.128 320.108 42.632 320.16 42.208 320.264C41.792 320.36 41.468 320.504 41.236 320.696C41.012 320.88 40.9 321.108 40.9 321.38C40.9 321.636 41.012 321.86 41.236 322.052C41.468 322.236 41.792 322.38 42.208 322.484C42.632 322.58 43.128 322.628 43.696 322.628C44.272 322.628 44.768 322.58 45.184 322.484C45.608 322.38 45.932 322.236 46.156 322.052C46.38 321.86 46.492 321.636 46.492 321.38C46.492 321.108 46.38 320.88 46.156 320.696C45.932 320.504 45.608 320.36 45.184 320.264C44.768 320.16 44.272 320.108 43.696 320.108ZM40 326.216H47.404V329.792H40V326.216ZM46.432 327.02H40.972V328.976H46.432V327.02ZM38.8 324.344H48.604V325.16H38.8V324.344Z" fill="#A5A5A5"/>
<path d="M148.033 323.588H149.029V325.232H148.033V323.588ZM148.501 319.58C149.021 319.58 149.481 319.672 149.881 319.856C150.289 320.032 150.605 320.28 150.829 320.6C151.061 320.92 151.177 321.292 151.177 321.716C151.177 322.14 151.061 322.516 150.829 322.844C150.605 323.164 150.289 323.416 149.881 323.6C149.481 323.776 149.021 323.864 148.501 323.864C147.981 323.864 147.517 323.776 147.109 323.6C146.709 323.416 146.393 323.164 146.161 322.844C145.937 322.516 145.825 322.14 145.825 321.716C145.825 321.292 145.937 320.92 146.161 320.6C146.393 320.28 146.709 320.032 147.109 319.856C147.517 319.672 147.981 319.58 148.501 319.58ZM148.501 320.348C148.165 320.348 147.865 320.404 147.601 320.516C147.337 320.628 147.129 320.788 146.977 320.996C146.833 321.204 146.761 321.444 146.761 321.716C146.761 321.988 146.833 322.228 146.977 322.436C147.129 322.644 147.337 322.808 147.601 322.928C147.865 323.04 148.165 323.096 148.501 323.096C148.845 323.096 149.145 323.04 149.401 322.928C149.665 322.808 149.869 322.644 150.013 322.436C150.165 322.228 150.241 321.988 150.241 321.716C150.241 321.444 150.165 321.204 150.013 320.996C149.869 320.788 149.665 320.628 149.401 320.516C149.145 320.404 148.845 320.348 148.501 320.348ZM152.641 319.088H153.637V327.392H152.641V319.088ZM153.217 322.748H155.221V323.588H153.217V322.748ZM146.773 328.868H154.021V329.684H146.773V328.868ZM146.773 326.684H147.769V329.228H146.773V326.684ZM145.333 325.784L145.213 324.956C145.845 324.956 146.541 324.952 147.301 324.944C148.069 324.928 148.853 324.896 149.653 324.848C150.453 324.792 151.221 324.708 151.957 324.596L152.029 325.328C151.277 325.464 150.501 325.564 149.701 325.628C148.909 325.692 148.137 325.736 147.385 325.76C146.641 325.776 145.957 325.784 145.333 325.784ZM155.664 324.488H165.468V325.292H155.664V324.488ZM160.068 322.628H161.064V324.812H160.068V322.628ZM156.756 326.348H164.268V330.02H163.284V327.152H156.756V326.348ZM156.9 322.376H164.352V323.192H156.9V322.376ZM156.9 319.52H164.256V320.324H157.896V322.796H156.9V319.52ZM172.507 321.704H174.631V322.52H172.507V321.704ZM172.507 325.004H174.631V325.832H172.507V325.004ZM176.455 319.076H177.415V329.936H176.455V319.076ZM174.319 319.304H175.267V329.384H174.319V319.304ZM170.623 319.988C171.095 319.988 171.503 320.14 171.847 320.444C172.199 320.748 172.471 321.184 172.663 321.752C172.855 322.32 172.951 322.988 172.951 323.756C172.951 324.532 172.855 325.204 172.663 325.772C172.471 326.34 172.199 326.78 171.847 327.092C171.503 327.396 171.095 327.548 170.623 327.548C170.167 327.548 169.763 327.396 169.411 327.092C169.067 326.78 168.799 326.34 168.607 325.772C168.415 325.204 168.319 324.532 168.319 323.756C168.319 322.988 168.415 322.32 168.607 321.752C168.799 321.184 169.067 320.748 169.411 320.444C169.763 320.14 170.167 319.988 170.623 319.988ZM170.623 320.912C170.343 320.912 170.095 321.028 169.879 321.26C169.671 321.492 169.511 321.82 169.399 322.244C169.287 322.668 169.231 323.172 169.231 323.756C169.231 324.34 169.287 324.848 169.399 325.28C169.511 325.704 169.671 326.032 169.879 326.264C170.095 326.496 170.343 326.612 170.623 326.612C170.919 326.612 171.171 326.496 171.379 326.264C171.587 326.032 171.747 325.704 171.859 325.28C171.979 324.848 172.039 324.34 172.039 323.756C172.039 323.172 171.979 322.668 171.859 322.244C171.747 321.82 171.587 321.492 171.379 321.26C171.171 321.028 170.919 320.912 170.623 320.912ZM181.266 319.64H182.082V320.744C182.082 321.44 181.958 322.088 181.71 322.688C181.47 323.288 181.126 323.812 180.678 324.26C180.23 324.7 179.706 325.036 179.106 325.268L178.566 324.476C179.118 324.276 179.594 323.988 179.994 323.612C180.402 323.236 180.714 322.804 180.93 322.316C181.154 321.82 181.266 321.296 181.266 320.744V319.64ZM181.446 319.64H182.25V320.828C182.25 321.188 182.314 321.544 182.442 321.896C182.57 322.24 182.75 322.56 182.982 322.856C183.222 323.152 183.502 323.416 183.822 323.648C184.142 323.872 184.498 324.052 184.89 324.188L184.362 324.968C183.786 324.752 183.278 324.44 182.838 324.032C182.398 323.616 182.054 323.136 181.806 322.592C181.566 322.04 181.446 321.452 181.446 320.828V319.64ZM186.054 319.076H187.05V325.664H186.054V319.076ZM186.774 321.884H188.646V322.724H186.774V321.884ZM183.594 325.952C184.33 325.952 184.962 326.032 185.49 326.192C186.026 326.344 186.438 326.568 186.726 326.864C187.014 327.16 187.158 327.516 187.158 327.932C187.158 328.348 187.014 328.704 186.726 329C186.438 329.296 186.026 329.52 185.49 329.672C184.962 329.832 184.33 329.912 183.594 329.912C182.858 329.912 182.222 329.832 181.686 329.672C181.15 329.52 180.738 329.296 180.45 329C180.162 328.704 180.018 328.348 180.018 327.932C180.018 327.516 180.162 327.16 180.45 326.864C180.738 326.568 181.15 326.344 181.686 326.192C182.222 326.032 182.858 325.952 183.594 325.952ZM183.594 326.744C183.058 326.744 182.594 326.792 182.202 326.888C181.818 326.984 181.522 327.12 181.314 327.296C181.106 327.472 181.002 327.684 181.002 327.932C181.002 328.188 181.106 328.404 181.314 328.58C181.522 328.756 181.818 328.892 182.202 328.988C182.594 329.076 183.058 329.12 183.594 329.12C184.13 329.12 184.59 329.076 184.974 328.988C185.358 328.892 185.654 328.756 185.862 328.58C186.07 328.404 186.174 328.188 186.174 327.932C186.174 327.684 186.07 327.472 185.862 327.296C185.654 327.12 185.358 326.984 184.974 326.888C184.59 326.792 184.13 326.744 183.594 326.744ZM194.004 320.012H194.832V321.956C194.832 322.58 194.752 323.188 194.592 323.78C194.44 324.364 194.22 324.912 193.932 325.424C193.652 325.928 193.32 326.376 192.936 326.768C192.56 327.152 192.148 327.456 191.7 327.68L191.088 326.852C191.496 326.668 191.876 326.404 192.228 326.06C192.58 325.716 192.888 325.328 193.152 324.896C193.416 324.456 193.624 323.984 193.776 323.48C193.928 322.976 194.004 322.468 194.004 321.956V320.012ZM194.172 320.012H195V321.956C195 322.452 195.072 322.94 195.216 323.42C195.368 323.9 195.576 324.356 195.84 324.788C196.112 325.212 196.42 325.588 196.764 325.916C197.116 326.236 197.492 326.488 197.892 326.672L197.292 327.464C196.852 327.256 196.444 326.964 196.068 326.588C195.692 326.212 195.36 325.78 195.072 325.292C194.792 324.804 194.572 324.276 194.412 323.708C194.252 323.14 194.172 322.556 194.172 321.956V320.012ZM199.032 319.076H200.028V329.948H199.032V319.076ZM209.003 319.076H210.011V327.008H209.003V319.076ZM209.699 322.364H211.607V323.204H209.699V322.364ZM206.039 319.916H207.095C207.095 320.852 206.887 321.7 206.471 322.46C206.063 323.22 205.479 323.88 204.719 324.44C203.959 325 203.059 325.444 202.019 325.772L201.599 324.968C202.511 324.68 203.299 324.308 203.963 323.852C204.627 323.396 205.139 322.872 205.499 322.28C205.859 321.688 206.039 321.048 206.039 320.36V319.916ZM202.043 319.916H206.555V320.744H202.043V319.916ZM203.243 328.88H210.479V329.696H203.243V328.88ZM203.243 326.204H204.239V329.204H203.243V326.204ZM214.295 331.352C213.743 330.456 213.311 329.516 212.999 328.532C212.687 327.54 212.531 326.452 212.531 325.268C212.531 324.092 212.687 323.008 212.999 322.016C213.311 321.024 213.743 320.08 214.295 319.184L214.967 319.496C214.455 320.352 214.071 321.276 213.815 322.268C213.567 323.252 213.443 324.252 213.443 325.268C213.443 326.292 213.567 327.3 213.815 328.292C214.071 329.276 214.455 330.196 214.967 331.052L214.295 331.352ZM215.469 324.812H225.309V325.616H215.469V324.812ZM219.957 325.22H220.953V327.716H219.957V325.22ZM216.717 328.88H224.217V329.696H216.717V328.88ZM216.717 326.744H217.701V329.18H216.717V326.744ZM216.777 319.424H217.761V320.804H223.017V319.424H224.001V323.768H216.777V319.424ZM217.761 321.572V322.964H223.017V321.572H217.761ZM226.508 331.352L225.824 331.052C226.344 330.196 226.732 329.276 226.988 328.292C227.244 327.3 227.372 326.292 227.372 325.268C227.372 324.252 227.244 323.252 226.988 322.268C226.732 321.276 226.344 320.352 225.824 319.496L226.508 319.184C227.068 320.08 227.5 321.024 227.804 322.016C228.116 323.008 228.272 324.092 228.272 325.268C228.272 326.452 228.116 327.54 227.804 328.532C227.5 329.516 227.068 330.456 226.508 331.352Z" fill="#A5A5A5"/>
<path d="M326.693 321.848H334.073V322.664H326.693V321.848ZM326.693 319.316H327.677V322.376H326.693V319.316ZM325.361 324.02H335.165V324.824H325.361V324.02ZM329.765 322.388H330.761V324.56H329.765V322.388ZM326.453 325.904H334.085V326.708H326.453V325.904ZM326.357 328.976H334.181V329.792H326.357V328.976ZM328.097 326.132H329.081V329.348H328.097V326.132ZM331.457 326.132H332.441V329.348H331.457V326.132ZM340.696 319.316C341.48 319.316 342.156 319.4 342.724 319.568C343.3 319.728 343.74 319.96 344.044 320.264C344.356 320.568 344.512 320.94 344.512 321.38C344.512 321.804 344.356 322.172 344.044 322.484C343.74 322.788 343.3 323.02 342.724 323.18C342.156 323.34 341.48 323.42 340.696 323.42C339.92 323.42 339.244 323.34 338.668 323.18C338.1 323.02 337.66 322.788 337.348 322.484C337.036 322.172 336.88 321.804 336.88 321.38C336.88 320.94 337.036 320.568 337.348 320.264C337.66 319.96 338.1 319.728 338.668 319.568C339.244 319.4 339.92 319.316 340.696 319.316ZM340.696 320.108C340.128 320.108 339.632 320.16 339.208 320.264C338.792 320.36 338.468 320.504 338.236 320.696C338.012 320.88 337.9 321.108 337.9 321.38C337.9 321.636 338.012 321.86 338.236 322.052C338.468 322.236 338.792 322.38 339.208 322.484C339.632 322.58 340.128 322.628 340.696 322.628C341.272 322.628 341.768 322.58 342.184 322.484C342.608 322.38 342.932 322.236 343.156 322.052C343.38 321.86 343.492 321.636 343.492 321.38C343.492 321.108 343.38 320.88 343.156 320.696C342.932 320.504 342.608 320.36 342.184 320.264C341.768 320.16 341.272 320.108 340.696 320.108ZM337 326.216H344.404V329.792H337V326.216ZM343.432 327.02H337.972V328.976H343.432V327.02ZM335.8 324.344H345.604V325.16H335.8V324.344Z" fill="#A5A5A5"/>
<path d="M78 365C78 369.418 74.4183 373 70 373C65.5817 373 62 369.418 62 365C62 360.582 65.5817 357 70 357C74.4183 357 78 360.582 78 365Z" fill="#A451F7"/>
<path d="M74.2353 365C74.2353 367.339 72.3391 369.235 70 369.235C67.6609 369.235 65.7647 367.339 65.7647 365C65.7647 362.661 67.6609 360.765 70 360.765C72.3391 360.765 74.2353 362.661 74.2353 365Z" fill="#FBFBFB"/>
<path d="M93.044 360.496H98.432V365.212H93.044V360.496ZM96.872 361.744H94.616V363.952H96.872V361.744ZM100.124 359.956H101.72V365.548H100.124V359.956ZM94.304 366.04H101.72V369.052H95.9V370.192H94.328V367.912H100.136V367.264H94.304V366.04ZM94.328 369.748H101.996V370.996H94.328V369.748ZM110.575 359.932H112.183V371.08H110.575V359.932ZM103.531 367.192H104.515C105.171 367.192 105.791 367.184 106.375 367.168C106.959 367.144 107.531 367.108 108.091 367.06C108.651 367.004 109.223 366.924 109.807 366.82L109.975 368.104C109.079 368.264 108.195 368.372 107.323 368.428C106.459 368.476 105.523 368.5 104.515 368.5H103.531V367.192ZM103.507 360.88H108.751V365.188H105.151V367.684H103.531V363.928H107.131V362.164H103.507V360.88ZM115.957 360.748H121.945V362.02H115.957V360.748ZM115.849 366.34L115.681 365.044C116.329 365.044 117.033 365.04 117.793 365.032C118.553 365.016 119.325 364.988 120.109 364.948C120.893 364.908 121.645 364.848 122.365 364.768L122.473 365.932C121.737 366.052 120.977 366.144 120.193 366.208C119.417 366.264 118.657 366.3 117.913 366.316C117.177 366.332 116.489 366.34 115.849 366.34ZM116.845 361.756H118.369V365.476H116.845V361.756ZM119.533 361.756H121.069V365.476H119.533V361.756ZM117.145 367.192H124.717V371.068H123.121V368.476H117.145V367.192ZM123.121 359.956H124.717V366.736H123.121V359.956Z" fill="#6F6F6F"/>
<path d="M136.358 360.122H142.266V365.302H136.358V360.122ZM141.132 361.06H137.492V364.378H141.132V361.06ZM144.912 359.422H146.074V365.932H144.912V359.422ZM137.884 366.576H146.074V369.628H139.046V371.406H137.912V368.774H144.926V367.5H137.884V366.576ZM137.912 371.014H146.494V371.952H137.912V371.014ZM157.005 359.422H158.153V372.106H157.005V359.422ZM148.507 368.074H149.557C150.276 368.074 150.966 368.065 151.629 368.046C152.301 368.018 152.978 367.971 153.659 367.906C154.35 367.841 155.068 367.747 155.815 367.626L155.927 368.578C154.788 368.765 153.715 368.891 152.707 368.956C151.699 369.012 150.649 369.04 149.557 369.04H148.507V368.074ZM148.479 360.598H154.331V365.12H149.683V368.438H148.507V364.182H153.155V361.55H148.479V360.598ZM165.801 367.024H166.963V369.11H165.801V367.024ZM171.345 359.422H172.507V372.092H171.345V359.422ZM162.427 369.684L162.259 368.704C163.061 368.695 163.929 368.685 164.863 368.676C165.796 368.667 166.748 368.634 167.719 368.578C168.689 368.522 169.627 368.433 170.533 368.312L170.617 369.18C169.683 369.329 168.736 369.441 167.775 369.516C166.813 369.581 165.875 369.628 164.961 369.656C164.046 369.675 163.201 369.684 162.427 369.684ZM162.525 360.976H170.211V361.914H162.525V360.976ZM166.361 362.628C166.967 362.628 167.499 362.726 167.957 362.922C168.414 363.118 168.769 363.393 169.021 363.748C169.282 364.093 169.413 364.504 169.413 364.98C169.413 365.447 169.282 365.857 169.021 366.212C168.769 366.567 168.414 366.842 167.957 367.038C167.499 367.225 166.967 367.318 166.361 367.318C165.763 367.318 165.236 367.225 164.779 367.038C164.321 366.842 163.967 366.567 163.715 366.212C163.463 365.857 163.337 365.447 163.337 364.98C163.337 364.504 163.463 364.093 163.715 363.748C163.967 363.393 164.321 363.118 164.779 362.922C165.236 362.726 165.763 362.628 166.361 362.628ZM166.361 363.538C165.801 363.538 165.339 363.669 164.975 363.93C164.611 364.191 164.429 364.541 164.429 364.98C164.429 365.409 164.611 365.755 164.975 366.016C165.339 366.277 165.801 366.408 166.361 366.408C166.939 366.408 167.406 366.277 167.761 366.016C168.125 365.755 168.307 365.409 168.307 364.98C168.307 364.541 168.125 364.191 167.761 363.93C167.406 363.669 166.939 363.538 166.361 363.538ZM165.801 359.436H166.963V361.48H165.801V359.436ZM177.852 365.806H179.014V368.62H177.852V365.806ZM183.466 359.436H184.628V369.054H183.466V359.436ZM175.99 370.86H184.936V371.812H175.99V370.86ZM175.99 368.116H177.152V371.112H175.99V368.116ZM174.352 366.24L174.198 365.274C174.982 365.274 175.831 365.269 176.746 365.26C177.67 365.241 178.612 365.209 179.574 365.162C180.535 365.106 181.464 365.022 182.36 364.91L182.444 365.75C181.538 365.899 180.605 366.011 179.644 366.086C178.692 366.151 177.763 366.193 176.858 366.212C175.952 366.231 175.117 366.24 174.352 366.24ZM180.89 366.912H183.774V367.752H180.89V366.912ZM178.314 359.94C178.939 359.94 179.485 360.033 179.952 360.22C180.418 360.397 180.778 360.654 181.03 360.99C181.291 361.317 181.422 361.704 181.422 362.152C181.422 362.591 181.291 362.978 181.03 363.314C180.778 363.65 180.418 363.907 179.952 364.084C179.485 364.261 178.939 364.35 178.314 364.35C177.698 364.35 177.152 364.261 176.676 364.084C176.209 363.907 175.845 363.65 175.584 363.314C175.332 362.978 175.206 362.591 175.206 362.152C175.206 361.704 175.332 361.317 175.584 360.99C175.845 360.654 176.209 360.397 176.676 360.22C177.152 360.033 177.698 359.94 178.314 359.94ZM178.314 360.808C177.716 360.808 177.231 360.929 176.858 361.172C176.484 361.415 176.298 361.741 176.298 362.152C176.298 362.553 176.484 362.875 176.858 363.118C177.231 363.361 177.716 363.482 178.314 363.482C178.902 363.482 179.382 363.361 179.756 363.118C180.129 362.875 180.316 362.553 180.316 362.152C180.316 361.872 180.232 361.634 180.064 361.438C179.896 361.242 179.662 361.088 179.364 360.976C179.065 360.864 178.715 360.808 178.314 360.808ZM186.346 364.714H197.798V365.652H186.346V364.714ZM187.872 362.754H196.426V363.692H187.872V362.754ZM187.872 359.842H196.3V360.78H189.02V363.496H187.872V359.842ZM187.732 366.758H196.314V369.726H188.894V371.322H187.76V368.858H195.18V367.668H187.732V366.758ZM187.76 371.014H196.692V371.938H187.76V371.014ZM207.623 359.422H208.785V372.106H207.623V359.422ZM202.107 360.402C202.733 360.402 203.283 360.584 203.759 360.948C204.245 361.303 204.623 361.811 204.893 362.474C205.173 363.137 205.313 363.916 205.313 364.812C205.313 365.708 205.173 366.487 204.893 367.15C204.623 367.813 204.245 368.326 203.759 368.69C203.283 369.054 202.733 369.236 202.107 369.236C201.482 369.236 200.927 369.054 200.441 368.69C199.956 368.326 199.573 367.813 199.293 367.15C199.023 366.487 198.887 365.708 198.887 364.812C198.887 363.916 199.023 363.137 199.293 362.474C199.573 361.811 199.956 361.303 200.441 360.948C200.927 360.584 201.482 360.402 202.107 360.402ZM202.107 361.438C201.687 361.438 201.319 361.578 201.001 361.858C200.693 362.129 200.451 362.521 200.273 363.034C200.096 363.538 200.007 364.131 200.007 364.812C200.007 365.493 200.096 366.091 200.273 366.604C200.451 367.108 200.693 367.5 201.001 367.78C201.319 368.06 201.687 368.2 202.107 368.2C202.518 368.2 202.877 368.06 203.185 367.78C203.503 367.5 203.75 367.108 203.927 366.604C204.105 366.091 204.193 365.493 204.193 364.812C204.193 364.131 204.105 363.538 203.927 363.034C203.75 362.521 203.503 362.129 203.185 361.858C202.877 361.578 202.518 361.438 202.107 361.438ZM218.099 360.248H219.317C219.317 361.303 219.079 362.259 218.603 363.118C218.127 363.967 217.45 364.695 216.573 365.302C215.705 365.909 214.664 366.389 213.451 366.744L212.975 365.834C214.039 365.526 214.954 365.125 215.719 364.63C216.484 364.135 217.072 363.561 217.483 362.908C217.894 362.245 218.099 361.522 218.099 360.738V360.248ZM213.619 360.248H218.883V361.186H213.619V360.248ZM222.089 359.436H223.251V366.646H222.089V359.436ZM219.345 362.684H222.299V363.65H219.345V362.684ZM215.089 367.192H223.251V371.91H215.089V367.192ZM222.103 368.116H216.223V370.972H222.103V368.116ZM224.914 365.442H236.352V366.394H224.914V365.442ZM230.626 367.486C231.979 367.486 233.039 367.687 233.804 368.088C234.569 368.489 234.952 369.054 234.952 369.782C234.952 370.51 234.569 371.07 233.804 371.462C233.039 371.863 231.979 372.064 230.626 372.064C229.273 372.064 228.209 371.863 227.434 371.462C226.669 371.07 226.286 370.51 226.286 369.782C226.286 369.054 226.669 368.489 227.434 368.088C228.209 367.687 229.273 367.486 230.626 367.486ZM230.626 368.41C229.963 368.41 229.394 368.461 228.918 368.564C228.451 368.667 228.092 368.821 227.84 369.026C227.588 369.231 227.462 369.483 227.462 369.782C227.462 370.071 227.588 370.319 227.84 370.524C228.092 370.72 228.451 370.874 228.918 370.986C229.394 371.089 229.963 371.14 230.626 371.14C231.289 371.14 231.853 371.089 232.32 370.986C232.796 370.874 233.16 370.72 233.412 370.524C233.664 370.319 233.79 370.071 233.79 369.782C233.79 369.483 233.664 369.231 233.412 369.026C233.16 368.821 232.796 368.667 232.32 368.564C231.853 368.461 231.289 368.41 230.626 368.41ZM229.884 360.57H230.906V360.948C230.906 361.359 230.817 361.741 230.64 362.096C230.472 362.441 230.234 362.759 229.926 363.048C229.618 363.337 229.254 363.594 228.834 363.818C228.423 364.042 227.975 364.229 227.49 364.378C227.005 364.518 226.496 364.621 225.964 364.686L225.544 363.762C226.001 363.715 226.44 363.631 226.86 363.51C227.289 363.389 227.686 363.244 228.05 363.076C228.423 362.899 228.745 362.703 229.016 362.488C229.287 362.264 229.497 362.026 229.646 361.774C229.805 361.513 229.884 361.237 229.884 360.948V360.57ZM230.36 360.57H231.382V360.948C231.382 361.237 231.457 361.513 231.606 361.774C231.765 362.026 231.979 362.264 232.25 362.488C232.521 362.712 232.838 362.913 233.202 363.09C233.575 363.258 233.972 363.403 234.392 363.524C234.821 363.636 235.265 363.715 235.722 363.762L235.302 364.686C234.77 364.621 234.261 364.518 233.776 364.378C233.291 364.229 232.838 364.042 232.418 363.818C232.007 363.594 231.648 363.337 231.34 363.048C231.032 362.759 230.789 362.437 230.612 362.082C230.444 361.727 230.36 361.349 230.36 360.948V360.57ZM225.964 360.066H235.316V361.018H225.964V360.066ZM245.659 359.436H246.821V368.928H245.659V359.436ZM246.457 363.594H248.683V364.56H246.457V363.594ZM237.021 360.976H244.497V361.914H237.021V360.976ZM240.759 362.6C241.356 362.6 241.884 362.703 242.341 362.908C242.798 363.104 243.153 363.379 243.405 363.734C243.657 364.079 243.783 364.49 243.783 364.966C243.783 365.442 243.657 365.857 243.405 366.212C243.153 366.557 242.798 366.828 242.341 367.024C241.884 367.22 241.356 367.318 240.759 367.318C240.162 367.318 239.634 367.22 239.177 367.024C238.72 366.828 238.36 366.557 238.099 366.212C237.847 365.857 237.721 365.442 237.721 364.966C237.721 364.49 237.847 364.079 238.099 363.734C238.36 363.379 238.72 363.104 239.177 362.908C239.634 362.703 240.162 362.6 240.759 362.6ZM240.759 363.51C240.19 363.51 239.728 363.645 239.373 363.916C239.018 364.177 238.841 364.527 238.841 364.966C238.841 365.405 239.018 365.755 239.373 366.016C239.728 366.277 240.19 366.408 240.759 366.408C241.338 366.408 241.8 366.277 242.145 366.016C242.5 365.755 242.677 365.405 242.677 364.966C242.677 364.527 242.5 364.177 242.145 363.916C241.8 363.645 241.338 363.51 240.759 363.51ZM240.185 359.436H241.347V361.452H240.185V359.436ZM238.939 370.86H247.381V371.812H238.939V370.86ZM238.939 368.172H240.087V371.252H238.939V368.172ZM252.005 360.864H262.183V361.816H252.005V360.864ZM251.403 367.64H262.883V368.592H251.403V367.64ZM256.541 368.41H257.689V372.106H256.541V368.41ZM257.115 362.544C258.403 362.544 259.411 362.726 260.139 363.09C260.867 363.454 261.231 363.977 261.231 364.658C261.231 365.321 260.867 365.839 260.139 366.212C259.411 366.576 258.403 366.758 257.115 366.758C255.827 366.758 254.819 366.576 254.091 366.212C253.363 365.839 252.999 365.321 252.999 364.658C252.999 363.977 253.363 363.454 254.091 363.09C254.819 362.726 255.827 362.544 257.115 362.544ZM257.115 363.426C256.191 363.426 255.472 363.533 254.959 363.748C254.455 363.953 254.203 364.257 254.203 364.658C254.203 365.041 254.455 365.339 254.959 365.554C255.472 365.769 256.191 365.876 257.115 365.876C258.039 365.876 258.753 365.769 259.257 365.554C259.77 365.339 260.027 365.041 260.027 364.658C260.027 364.257 259.77 363.953 259.257 363.748C258.753 363.533 258.039 363.426 257.115 363.426ZM256.541 359.352H257.689V361.494H256.541V359.352ZM267.094 367.024H268.256V369.11H267.094V367.024ZM272.638 359.422H273.8V372.092H272.638V359.422ZM263.72 369.684L263.552 368.704C264.354 368.695 265.222 368.685 266.156 368.676C267.089 368.667 268.041 368.634 269.012 368.578C269.982 368.522 270.92 368.433 271.826 368.312L271.91 369.18C270.976 369.329 270.029 369.441 269.068 369.516C268.106 369.581 267.168 369.628 266.254 369.656C265.339 369.675 264.494 369.684 263.72 369.684ZM263.818 360.976H271.504V361.914H263.818V360.976ZM267.654 362.628C268.26 362.628 268.792 362.726 269.25 362.922C269.707 363.118 270.062 363.393 270.314 363.748C270.575 364.093 270.706 364.504 270.706 364.98C270.706 365.447 270.575 365.857 270.314 366.212C270.062 366.567 269.707 366.842 269.25 367.038C268.792 367.225 268.26 367.318 267.654 367.318C267.056 367.318 266.529 367.225 266.072 367.038C265.614 366.842 265.26 366.567 265.008 366.212C264.756 365.857 264.63 365.447 264.63 364.98C264.63 364.504 264.756 364.093 265.008 363.748C265.26 363.393 265.614 363.118 266.072 362.922C266.529 362.726 267.056 362.628 267.654 362.628ZM267.654 363.538C267.094 363.538 266.632 363.669 266.268 363.93C265.904 364.191 265.722 364.541 265.722 364.98C265.722 365.409 265.904 365.755 266.268 366.016C266.632 366.277 267.094 366.408 267.654 366.408C268.232 366.408 268.699 366.277 269.054 366.016C269.418 365.755 269.6 365.409 269.6 364.98C269.6 364.541 269.418 364.191 269.054 363.93C268.699 363.669 268.232 363.538 267.654 363.538ZM267.094 359.436H268.256V361.48H267.094V359.436ZM279.333 366.856H280.425V368.424H282.637V366.856H283.715V371.924H279.333V366.856ZM280.425 369.306V371.014H282.637V369.306H280.425ZM286.165 366.772H287.075V367.836C287.075 368.405 286.977 368.965 286.781 369.516C286.585 370.057 286.291 370.547 285.899 370.986C285.517 371.425 285.036 371.77 284.457 372.022L283.869 371.14C284.373 370.925 284.798 370.641 285.143 370.286C285.489 369.931 285.745 369.539 285.913 369.11C286.081 368.681 286.165 368.256 286.165 367.836V366.772ZM286.417 366.772H287.313V367.836C287.313 368.284 287.397 368.727 287.565 369.166C287.743 369.595 288.004 369.983 288.349 370.328C288.695 370.673 289.119 370.944 289.623 371.14L289.021 372.022C288.433 371.779 287.948 371.443 287.565 371.014C287.183 370.585 286.893 370.095 286.697 369.544C286.511 368.993 286.417 368.424 286.417 367.836V366.772ZM284.247 362.39H287.649V363.356H284.247V362.39ZM281.349 359.982C281.975 359.982 282.53 360.108 283.015 360.36C283.51 360.603 283.897 360.943 284.177 361.382C284.457 361.811 284.597 362.315 284.597 362.894C284.597 363.463 284.457 363.972 284.177 364.42C283.897 364.859 283.51 365.204 283.015 365.456C282.53 365.699 281.975 365.82 281.349 365.82C280.715 365.82 280.15 365.699 279.655 365.456C279.17 365.204 278.787 364.859 278.507 364.42C278.227 363.972 278.087 363.463 278.087 362.894C278.087 362.315 278.227 361.811 278.507 361.382C278.787 360.943 279.17 360.603 279.655 360.36C280.15 360.108 280.715 359.982 281.349 359.982ZM281.349 360.948C280.929 360.948 280.556 361.032 280.229 361.2C279.912 361.359 279.66 361.587 279.473 361.886C279.287 362.175 279.193 362.511 279.193 362.894C279.193 363.277 279.287 363.617 279.473 363.916C279.66 364.205 279.912 364.434 280.229 364.602C280.556 364.77 280.929 364.854 281.349 364.854C281.76 364.854 282.124 364.77 282.441 364.602C282.768 364.434 283.025 364.205 283.211 363.916C283.398 363.617 283.491 363.277 283.491 362.894C283.491 362.511 283.398 362.175 283.211 361.886C283.025 361.587 282.768 361.359 282.441 361.2C282.124 361.032 281.76 360.948 281.349 360.948ZM287.145 359.422H288.307V366.128H287.145V359.422ZM291.51 363.23H300.12V364.168H291.51V363.23ZM289.956 365.862H301.436V366.814H289.956V365.862ZM291.51 359.884H292.658V363.706H291.51V359.884ZM291.426 370.832H300.19V371.784H291.426V370.832ZM291.426 368.088H292.588V371.084H291.426V368.088ZM307.012 361.746H307.908V362.166C307.908 362.838 307.796 363.482 307.572 364.098C307.348 364.705 307.021 365.246 306.592 365.722C306.172 366.189 305.654 366.553 305.038 366.814L304.478 365.946C305.01 365.722 305.463 365.419 305.836 365.036C306.219 364.644 306.508 364.201 306.704 363.706C306.909 363.211 307.012 362.698 307.012 362.166V361.746ZM307.236 361.746H308.118V362.166C308.118 362.661 308.221 363.141 308.426 363.608C308.631 364.075 308.925 364.49 309.308 364.854C309.691 365.218 310.143 365.503 310.666 365.708L310.12 366.59C309.504 366.338 308.981 365.988 308.552 365.54C308.123 365.092 307.796 364.579 307.572 364C307.348 363.421 307.236 362.81 307.236 362.166V361.746ZM304.73 361.088H310.358V362.026H304.73V361.088ZM307.012 359.576H308.118V361.48H307.012V359.576ZM313.942 359.436H315.048V367.192H313.942V359.436ZM311.898 362.81H314.278V363.762H311.898V362.81ZM311.24 359.66H312.346V367.122H311.24V359.66ZM306.564 367.864H315.048V372.092H313.9V368.816H306.564V367.864Z" fill="#6F6F6F"/>
<defs>
<clipPath id="clip0_2737_14417">
<rect x="48.5" y="20" width="295" height="295" fill="white"/>
</clipPath>
</defs>
</svg>
